<svg xmlns="http://www.w3.org/2000/svg" viewBox="0 0 32 32" fill="none">
  <!-- Background circle -->
  <circle cx="16" cy="16" r="15" fill="#7dd3fc"/>

  <!-- Branch -->
  <rect x="4" y="22" width="24" height="4" rx="2" fill="#a16207"/>

  <!-- Bird body -->
  <ellipse cx="16" cy="17" rx="7" ry="6" fill="#4ade80"/>
  <!-- Bird head -->
  <circle cx="16" cy="11" r="5" fill="#4ade80"/>

  <!-- Belly -->
  <ellipse cx="17" cy="19" rx="4" ry="3.5" fill="#bbf7d0"/>

  <!-- Eye -->
  <circle cx="18" cy="10" r="2" fill="white"/>
  <circle cx="18.5" cy="10" r="1.2" fill="#1c1917"/>
  <circle cx="18.8" cy="9.5" r="0.4" fill="white"/>

  <!-- Beak -->
  <path d="M21 12 L25 13 L21 14.5 Z" fill="#a16207"/>

  <!-- Camera -->
  <rect x="12" y="15" width="8" height="6" rx="1.5" fill="#1c1917"/>
  <circle cx="16" cy="18" r="2.2" fill="#374151"/>
  <circle cx="16" cy="18" r="1.3" fill="#7dd3fc"/>
  <circle cx="15.5" cy="17.5" r="0.4" fill="white"/>
  <!-- Record dot -->
  <circle cx="18.5" cy="16" r="0.8" fill="#f87171"/>

  <!-- Tail -->
  <path d="M11 21 Q7 27 5 29 Q9 25 12 23" fill="#22c55e"/>
</svg>
